<svg width="1200" height="630" viewBox="0 0 1200 630" fill="none" xmlns="http://www.w3.org/2000/svg">
  <rect width="1200" height="630" fill="#07110B"/>
  <circle cx="180" cy="80" r="340" fill="#2E7D32" fill-opacity="0.34"/>
  <circle cx="1030" cy="520" r="300" fill="#79DC83" fill-opacity="0.18"/>
  <path d="M0 465C120 432 194 501 310 463C426 425 463 303 580 336C697 369 756 516 880 468C1004 420 1038 280 1200 311" stroke="#79DC83" stroke-opacity="0.34" stroke-width="3"/>
  <g filter="url(#shadow)">
    <rect x="720" y="94" width="288" height="432" rx="64" fill="url(#device)" stroke="#79DC83" stroke-opacity="0.22" stroke-width="2"/>
    <circle cx="864" cy="150" r="10" fill="#79DC83"/>
    <rect x="760" y="184" width="208" height="282" rx="42" stroke="#79DC83" stroke-opacity="0.14" stroke-width="2"/>
    <path d="M760 322H801L829 262L864 403L897 322H932L968 322" stroke="#79DC83" stroke-width="8" stroke-linecap="round" stroke-linejoin="round"/>
  </g>
  <g>
    <rect x="88" y="86" width="76" height="76" rx="24" fill="#102517" stroke="#79DC83" stroke-opacity="0.28" stroke-width="2"/>
    <path d="M106 130H116L123 113L132 146L140 127H148" stroke="#79DC83" stroke-width="4" stroke-linecap="round" stroke-linejoin="round"/>
    <text x="184" y="126" fill="#F6F9F4" font-family="Inter, Arial, sans-serif" font-size="42" font-weight="700">SismoSmart</text>
    <text x="184" y="160" fill="#B7C6BB" font-family="Inter, Arial, sans-serif" font-size="18" font-weight="700" letter-spacing="5">EARTHQUAKE INTELLIGENCE</text>
  </g>
  <text x="88" y="292" fill="#F6F9F4" font-family="Inter, Arial, sans-serif" font-size="72" font-weight="800">
    <tspan x="88" dy="0">Seismic intelligence</tspan>
    <tspan x="88" dy="82">for modern buildings</tspan>
  </text>
  <text x="90" y="488" fill="#C8D7CB" font-family="Inter, Arial, sans-serif" font-size="30" font-weight="500">
    Plug-in earthquake awareness, mobile alerts and structural insight.
  </text>
  <defs>
    <linearGradient id="device" x1="752" y1="100" x2="1008" y2="526" gradientUnits="userSpaceOnUse">
      <stop stop-color="#143621"/>
      <stop offset="1" stop-color="#07110B"/>
    </linearGradient>
    <filter id="shadow" x="660" y="54" width="408" height="552" color-interpolation-filters="sRGB" filterUnits="userSpaceOnUse">
      <feDropShadow dx="0" dy="34" stdDeviation="34" flood-color="#000000" flood-opacity="0.45"/>
    </filter>
  </defs>
</svg>
